<svg id="Layer_2" data-name="Layer 2" xmlns="http://www.w3.org/2000/svg" viewBox="0 0 110.88 40.28"><defs><style>.cls-1{fill:#83d252;}</style></defs><path d="M176.79,314.12v6.48H172V302.22h7.32c3.27,0,6.29,1.85,6.29,5.76a4.9,4.9,0,0,1-3.16,5c.48.69,4.92,7.6,4.92,7.6h-5.74s-3.34-5.64-3.87-6.48Zm-.09-3.62h1.53c1.33,0,2.48-.55,2.48-2.3,0-1.56-.84-2.31-2.43-2.31H176.7Z" transform="translate(-126.25 -301.53)"/><path d="M189.49,302.22h10.66v4.18h-5.86v3h5.52v4.08h-5.52v3.07h6v4.08H189.49Z" transform="translate(-126.25 -301.53)"/><path d="M212.65,301.69a9,9,0,0,1,4.85,1.15v5a6.46,6.46,0,0,0-4.61-1.61c-3.12,0-4.85,2.28-4.85,5.4a4.81,4.81,0,0,0,5.09,4.92,7.52,7.52,0,0,0,4.32-1.51v4.82a10.29,10.29,0,0,1-4.63,1.22,9.32,9.32,0,0,1-9.63-9.5C203.19,305.7,207.25,301.69,212.65,301.69Z" transform="translate(-126.25 -301.53)"/><path d="M176.79,335.12v6.48H172V323.22h7.32c3.27,0,6.29,1.85,6.29,5.76a4.9,4.9,0,0,1-3.16,5c.48.69,4.92,7.6,4.92,7.6h-5.74s-3.34-5.64-3.87-6.48Zm-.09-3.62h1.53c1.33,0,2.48-.55,2.48-2.3,0-1.56-.84-2.31-2.43-2.31H176.7Z" transform="translate(-126.25 -301.53)"/><path d="M189.49,323.22h10.66v4.18h-5.86v3h5.52v4.08h-5.52v3.07h6v4.08H189.49Z" transform="translate(-126.25 -301.53)"/><path d="M209,341.6h-4.8V323.22H209l8.59,10.9v-10.9h4.66V341.6h-4.8l-8.45-11Z" transform="translate(-126.25 -301.53)"/><path d="M228.35,327.61h-3.8v-4.37h12.58v4.37h-3.79v14h-5Z" transform="translate(-126.25 -301.53)"/><circle class="cls-1" cx="20.14" cy="20.14" r="20.14"/></svg>